<?xml version="1.0" standalone="no"?><!DOCTYPE svg PUBLIC "-//W3C//DTD SVG 1.1//EN" "http://www.w3.org/Graphics/SVG/1.1/DTD/svg11.dtd"><svg t="1688539270082" class="icon" viewBox="0 0 1024 1024" version="1.1" xmlns="http://www.w3.org/2000/svg" p-id="68431" xmlns:xlink="http://www.w3.org/1999/xlink" width="200" height="200"><path d="M655.36 204.8c118.76352 0 215.04 96.17408 215.04 214.80448v81.82784c0 118.64064-96.27648 214.80448-215.04 214.80448H542.72l-146.46272 99.4304a20.49024 20.49024 0 0 1-28.44672-5.4272 20.43904 20.43904 0 0 1-2.53952-17.8176l24.73984-76.1856H368.64c-118.76352 0-215.04-96.16384-215.04-214.80448v-81.8176C153.6 300.96384 249.87648 204.8 368.64 204.8h286.72z m0 61.36832H368.64c-83.7632 0-151.8592 66.9696-153.56928 150.2208l-0.03072 3.21536v81.82784c0 83.6608 67.04128 151.69536 150.38464 153.3952l3.21536 0.04096h21.37088c30.34112 0 54.272 21.504 60.1088 48.4864l0.26624 1.36192 57.8048-39.23968A61.48096 61.48096 0 0 1 539.648 654.9504l3.072-0.07168h112.64c83.7632 0 151.8592-66.9696 153.56928-150.2208l0.03072-3.21536v-81.8176c0-83.67104-67.04128-151.69536-150.38464-153.40544L655.36 266.16832zM378.88 429.83424c22.6304 0 40.96 18.31936 40.96 40.91904a40.93952 40.93952 0 0 1-40.96 40.9088c-22.6304 0-40.96-18.31936-40.96-40.9088a40.93952 40.93952 0 0 1 40.96-40.91904z m266.24 0c22.6304 0 40.96 18.31936 40.96 40.91904a40.93952 40.93952 0 0 1-40.96 40.9088c-22.6304 0-40.96-18.31936-40.96-40.9088a40.93952 40.93952 0 0 1 40.96-40.91904z m-133.12 0c22.6304 0 40.96 18.31936 40.96 40.91904a40.93952 40.93952 0 0 1-40.96 40.9088c-22.6304 0-40.96-18.31936-40.96-40.9088a40.93952 40.93952 0 0 1 40.96-40.91904z" fill="#FAB005" p-id="68432"></path></svg>