<?xml version="1.0" standalone="no"?><!DOCTYPE svg PUBLIC "-//W3C//DTD SVG 1.1//EN" "http://www.w3.org/Graphics/SVG/1.1/DTD/svg11.dtd"><svg t="1688539098603" class="icon" viewBox="0 0 1024 1024" version="1.1" xmlns="http://www.w3.org/2000/svg" p-id="38609" xmlns:xlink="http://www.w3.org/1999/xlink" width="200" height="200"><path d="M205.1072 272.384c83.85536-83.85536 218.5216-85.9136 304.88576-6.20544 86.34368-79.7184 221.02016-77.64992 304.87552 6.21568 85.97504 85.97504 85.97504 225.37216 0 311.3472L586.78272 811.8272A102.13376 102.13376 0 0 1 509.952 841.728a102.11328 102.11328 0 0 1-76.75904-29.9008L205.1072 583.74144c-85.97504-85.97504-85.97504-225.3824 0-311.3472z m43.43808 43.44832c-61.21472 61.22496-61.97248 160.01024-2.26304 222.1568l2.26304 2.304 228.08576 228.08576a40.62208 40.62208 0 0 0 28.42624 11.99104l2.28352-0.03072 2.62144-0.1024 2.62144 0.1024a40.6528 40.6528 0 0 0 29.07136-10.36288l1.6896-1.59744 228.08576-228.08576c61.98272-61.98272 61.98272-162.47808 0-224.4608-59.4944-59.4944-154.85952-62.0544-217.31328-6.71744l-2.44736 2.21184-41.6768 38.47168-41.6768-38.47168c-62.40256-57.6-159.488-55.76704-219.77088 4.5056z" fill="#FAB005" p-id="38610"></path></svg>