<?xml version="1.0" standalone="no"?><!DOCTYPE svg PUBLIC "-//W3C//DTD SVG 1.1//EN" "http://www.w3.org/Graphics/SVG/1.1/DTD/svg11.dtd"><svg t="1688539250350" class="icon" viewBox="0 0 1024 1024" version="1.1" xmlns="http://www.w3.org/2000/svg" p-id="65596" xmlns:xlink="http://www.w3.org/1999/xlink" width="200" height="200"><path d="M512 143.36c-203.776 0-368.64 164.864-368.64 368.64s164.864 368.64 368.64 368.64 368.64-164.864 368.64-368.64c0-203.264-164.864-368.64-368.64-368.64z m-166.912 425.984c-31.232 0-56.832-25.6-56.832-56.832S313.856 455.68 345.088 455.68s56.832 25.6 56.832 56.832-25.088 56.832-56.832 56.832z m171.008 0c-31.232 0-56.832-25.6-56.832-56.832s25.6-56.832 56.832-56.832 56.832 25.6 56.832 56.832-25.6 56.832-56.832 56.832z m166.912 0c-31.232 0-56.832-25.6-56.832-56.832s25.6-56.832 56.832-56.832 56.832 25.6 56.832 56.832-25.6 56.832-56.832 56.832z" fill="#F7C748" p-id="65597"></path></svg>