<svg t="1688541591311" class="icon" viewBox="0 0 1024 1024" version="1.1" xmlns="http://www.w3.org/2000/svg" p-id="18489" width="200" height="200"><path d="M512 128c-211.7 0-384 172.3-384 384s172.3 384 384 384 384-172.3 384-384-172.3-384-384-384z m0 717.4c-183.8 0-333.4-149.6-333.4-333.4S328.2 178.6 512 178.6 845.4 328.2 845.4 512 695.8 845.4 512 845.4z" fill="#FFDB26" p-id="18490"></path><path d="M442.4 382.9c-14 0-25.3 11.3-25.3 25.3v207.5c0 14 11.3 25.3 25.3 25.3s25.3-11.3 25.3-25.3V408.2c0-13.9-11.3-25.3-25.3-25.3zM581.6 382.9c-14 0-25.3 11.3-25.3 25.3v207.5c0 14 11.3 25.3 25.3 25.3s25.3-11.3 25.3-25.3V408.2c0-13.9-11.3-25.3-25.3-25.3z" fill="#FFDB26" p-id="18491"></path></svg>