<svg t="1689482728497" class="icon" viewBox="0 0 1024 1024" version="1.1" xmlns="http://www.w3.org/2000/svg" p-id="8574" width="20" height="20"><path d="M685.237 808.447h-27.988c-33.594 0-56.016-27.988-56.016-55.996V310.049c0-33.594 28.008-55.996 56.016-55.996h27.988c33.594 0 56.016 28.008 56.016 55.996v436.816c5.585 33.594-22.423 61.582-56.016 61.582zM366.037 808.447h-27.988c-33.594 0-56.016-27.988-56.016-55.996V310.049c0-33.594 28.008-55.996 56.016-55.996h27.988c33.594 0 56.016 28.008 56.016 55.996v436.816c0 33.594-22.422 61.582-56.016 61.582z" p-id="8575" fill="#ffffff"></path></svg>