<?xml version="1.0" standalone="no"?><!DOCTYPE svg PUBLIC "-//W3C//DTD SVG 1.1//EN" "http://www.w3.org/Graphics/SVG/1.1/DTD/svg11.dtd"><svg t="1689847530529" class="icon" viewBox="0 0 1024 1024" version="1.1" xmlns="http://www.w3.org/2000/svg" p-id="3495" xmlns:xlink="http://www.w3.org/1999/xlink" width="200" height="200"><path d="M605.415226 736.751484h-184.980645a13.212903 13.212903 0 0 0-11.891613 19.026581l52.851613 105.703225a13.212903 13.212903 0 0 0 11.891613 7.399226h79.277419a13.212903 13.212903 0 0 0 11.891613-7.399226l52.851613-105.703225a13.212903 13.212903 0 0 0-11.891613-19.026581z m-61.043613 105.703226h-62.893419l-39.63871-79.27742h142.170839zM354.370065 551.770839a13.212903 13.212903 0 0 0 13.212903-13.212904v-52.851612a13.212903 13.212903 0 0 0-26.425807 0v52.851612a13.212903 13.212903 0 0 0 13.212904 13.212904zM671.479742 551.770839a13.212903 13.212903 0 0 0 13.212903-13.212904v-52.851612a13.212903 13.212903 0 0 0-26.425806 0v52.851612a13.212903 13.212903 0 0 0 13.212903 13.212904z" fill="#ffffff" p-id="3496"></path><path d="M948.95071 419.641806h-79.27742l13.212904-220.655483a26.425806 26.425806 0 0 0-14.534194-24.840258l-343.535484-171.239226a26.425806 26.425806 0 0 0-23.518968 0l-343.535483 171.239226a26.425806 26.425806 0 0 0-14.534194 24.840258l11.098839 220.655483h-79.27742a13.212903 13.212903 0 0 0-13.212903 13.212904v132.129032a13.212903 13.212903 0 0 0 7.399226 11.891613l94.075871 47.037935 2.906839 57.608258a132.129032 132.129032 0 0 1-9.249033 55.758452l-33.296516 83.24129a26.425806 26.425806 0 0 0 12.155871 33.032258l363.090581 167.275355a26.425806 26.425806 0 0 0 24.840258 0l363.090581-167.275355a26.425806 26.425806 0 0 0 12.15587-33.032258l-33.296516-83.24129a132.129032 132.129032 0 0 1-9.249032-55.758452l2.906839-57.608258 94.075871-47.037935a13.212903 13.212903 0 0 0 8.720516-11.891613v-132.129032a13.212903 13.212903 0 0 0-13.212903-13.212904z m-771.897807-87.205161l160.404645-68.707097 152.212646 177.58142a13.212903 13.212903 0 0 0 23.254709-8.456258v-184.980645l164.104258 117.33058a13.212903 13.212903 0 0 0 20.876387-11.627355v-85.619613l150.891355 64.743226-11.891613 237.832258L697.905548 710.325677l-184.980645-79.277419-184.980645 79.277419-138.999742-138.999742zM512.924903 25.89729l343.535484 171.767742-5.285161 105.703226-160.404645-68.707097a12.948645 12.948645 0 0 0-12.420129 0 13.212903 13.212903 0 0 0-5.813678 11.098839v79.277419l-165.16129-114.159484a13.212903 13.212903 0 0 0-20.876387 10.834581v174.146065l-135.300129-158.554839a13.212903 13.212903 0 0 0-15.326968-3.435355l-160.404645 68.707097-5.285161-105.703226zM90.112 556.791742v-110.724129h66.064516l7.399226 147.456z m785.903484 273.507097l-361.76929 166.48258h-2.642581l-361.76929-166.48258 33.296516-83.241291a158.554839 158.554839 0 0 0 11.098838-66.85729l-2.64258-52.851613v-16.119742l118.387613 118.387613a26.425806 26.425806 0 0 0 29.068387 5.549419L512.924903 660.116645l174.674581 74.785032a26.425806 26.425806 0 0 0 29.068387-5.549419l118.387613-118.387613-3.435355 69.499871a158.554839 158.554839 0 0 0 11.098839 66.85729zM935.737806 556.791742l-73.463741 36.731871v-10.834581l2.114064-28.275613 5.285161-107.024516H935.737806z" fill="#ffffff" p-id="3497"></path></svg>