<?xml version="1.0" standalone="no"?><!DOCTYPE svg PUBLIC "-//W3C//DTD SVG 1.1//EN" "http://www.w3.org/Graphics/SVG/1.1/DTD/svg11.dtd"><svg t="1688536897097" class="icon" viewBox="0 0 1024 1024" version="1.1" xmlns="http://www.w3.org/2000/svg" p-id="5622" xmlns:xlink="http://www.w3.org/1999/xlink" width="200" height="200"><path d="M644.84660224 521.24564934c-19.6055643 0-34.56559104-14.14967751-34.82406457-32.91462087l-1.83376441-142.23028337c-0.13738667-8.80207075 3.13195406-17.06856562 9.1990949-23.2265216 11.17024711-11.36817721 31.52212423-13.8131968 46.52872362-5.43958699l116.83351552 69.81578865c11.8723163 6.64696035 18.99314517 17.14540885 19.13169579 28.5904293 0.13738667 10.74178617-6.00543346 20.59754382-16.83919986 27.03027428l-117.2468406 72.49017401C659.23961856 519.25936127 652.07338211 521.24564934 644.84660224 521.24564934zM643.94427392 343.54977337c-2.06196622 0-3.6523941 0.65666275-4.2624842 1.28305265l1.63467036 143.08604018c0.03027171 2.00142279 2.49159111 4.14139733 8.26765882 0.68809842l117.24567552-72.49017402c0.16882233-0.10711495 0.33648071-0.1979301 0.48900437-0.30504504-0.56584761-0.4435968-1.29818851-0.94773589-2.24708949-1.48214784l-116.80207986-69.8006528C646.86432597 343.76400441 645.10624085 343.54977337 643.94427392 343.54977337z" fill="#FFCD32" p-id="5623"></path><path d="M516.23042162 1019.73741113c-280.25746205 0-508.25554034-227.99924338-508.25554034-508.24156957 0-280.25746205 227.99807829-508.25554034 508.25554034-508.25554034 280.25862599 0 508.25554034 227.99807829 508.25554033 508.25554034C1024.4871259 791.73816774 796.4890476 1019.73741113 516.23042162 1019.73741113zM516.23042162 65.82814606c-245.73844253 0-445.6676955 199.92808903-445.66769551 445.6676955 0 245.73960647 199.92808903 445.65255965 445.66769551 445.65255965s445.6676955-199.91295317 445.6676955-445.65255965C961.89928106 265.75740017 761.97002808 65.82814606 516.23042162 65.82814606z" fill="#FFCD32" p-id="5624"></path><path d="M894.08491634 527.14396785c-8.64954823 0-15.64579726-6.99857806-15.64579727-15.6469612 0-162.84296306-109.57529998-306.52395861-266.4594011-349.41658795-8.3433381-2.27619726-13.24851314-10.87917283-10.97231701-19.22251093 2.29249707-8.3433381 10.98745287-13.18680576 19.22367602-10.97115194 170.45163122 46.60556686 289.50080057 202.69445461 289.50080056 379.61025195C909.73071246 520.14538979 902.73329948 527.14396785 894.08491634 527.14396785z" fill="#FFCD32" p-id="5625"></path><path d="M537.33326848 149.85531961c-0.29107427 0-0.58098347 0-0.87089266-0.03027173-6.70866773-0.36675243-13.46157909-0.55071175-20.23195534-0.55071174-8.64838315 0-15.64696121-6.99857806-15.64696121-15.64696122s6.99857806-15.64696121 15.64696121-15.6469612c7.34903069 0 14.65381774 0.2142299 21.94346894 0.61125518 8.63324729 0.45873266 15.23480121 7.83803392 14.76093269 16.47244629C552.4923904 143.39115348 545.58462748 149.85531961 537.33326848 149.85531961z" fill="#FFCD32" p-id="5626"></path><path d="M265.20491463 701.0954695c-29.00142535 0-48.30078066-6.84721949-48.83519147-7.04514957-8.09883648-3.02600306-12.20879815-12.04113977-9.1990949-20.13997626 3.02600306-8.09883648 12.07141149-12.13311886 20.13881117-9.19793094 5.04256171 1.87917198 126.39936398 43.48758471 209.72330325-127.60673736 74.29366784-152.46793045 184.66301725-136.54503083 189.29341782-135.81152483 8.52613234 1.37619683 14.33363683 9.41216085 12.95860394 17.93945827-1.37619683 8.49586062-9.32134571 14.24049266-17.84864313 12.97257586-3.95627406-0.56468366-92.72096541-11.81177287-156.25654613 118.60673649C403.06443491 678.29624377 318.0441179 701.0954695 265.20491463 701.0954695z" fill="#FFCD32" p-id="5627"></path><path d="M643.94427392 758.50336596L643.94427392 758.50336596c-10.23764594 0-19.90944541-3.86546005-26.55640576-10.61953536-6.06714197-6.15795598-9.33764665-14.42445085-9.1990949-23.27192917l1.83376441-142.168576c0.25963747-18.77891527 15.21850027-32.92859278 34.82406457-32.92859278 7.22677987 0 14.39301518 1.98628693 20.71979463 5.74579598l117.70440817 72.76611243c10.6043995 6.2941787 16.74838471 16.14993635 16.61099805 26.89288761-0.13738667 11.44502045-7.25821554 21.94346894-19.49844935 28.80349526l-116.06857387 69.37335693C657.83315 756.71617308 650.92771612 758.50336596 643.94427392 758.50336596zM644.84660224 580.80749113c-2.32393273 0-3.51617138 0.68926237-3.53014216 2.04915939l-1.8337644 142.19884771c1.25278094 2.33790464 4.17166905 3.68266581 9.18395904 0.94657195l116.0394661-69.357056c1.13053013-0.64269085 1.97115107-1.22251037 2.59637816-1.7115136-0.07451534-0.04540757-0.16882233-0.09197909-0.24333767-0.15252252l-117.70557212-72.76611243C647.70261902 581.03685689 645.96083256 580.80749113 644.84660224 580.80749113z" fill="#FFCD32" p-id="5628"></path><path d="M605.31529272 670.96235007c-40.95058603 0-129.24140771-15.23596515-169.10803512-139.38823964-21.04114062-65.5218688-53.34334237-108.21540409-96.00660594-126.88836722-55.95718429-24.47930368-111.21113429 0.61125518-111.7606821 0.88602851-7.88460658 3.6523941-17.14424491 0.22936576-20.79663786-7.5935323-3.63725824-7.83919901-0.22936576-17.14540885 7.59469624-20.79663786 2.78033635-1.28421774 68.76210176-31.23337899 137.50790258-1.1771028 51.25110443 22.43130823 89.35964558 71.55757397 113.2579658 146.00376434 44.09883989 137.35538005 150.23714077 117.58215737 154.72899072 116.6646932 8.46558891-1.69521379 16.71694791 3.77464491 18.44476245 12.24139776 1.71034965 8.46442496-3.77464491 16.73091982-12.24139776 18.44243342C626.60093496 669.41849486 618.36587576 670.96235007 605.31529272 670.96235007z" fill="#FFCD32" p-id="5629"></path></svg>