<?xml version="1.0" standalone="no"?><!DOCTYPE svg PUBLIC "-//W3C//DTD SVG 1.1//EN" "http://www.w3.org/Graphics/SVG/1.1/DTD/svg11.dtd"><svg t="1687746011963" class="icon" viewBox="0 0 1052 1024" version="1.1" xmlns="http://www.w3.org/2000/svg" p-id="4257" xmlns:xlink="http://www.w3.org/1999/xlink" width="32.875" height="32"><path d="M545.859111 340.425749l43.236828 90.820711a25.089046 25.089046 0 0 0 18.76712 14.174668l96.616782 14.560294c20.496594 3.096692 28.676534 29.214073 13.847471 44.218421l-69.91512 70.698056a26.538064 26.538064 0 0 0-7.186662 22.950576l16.500109 99.83033c3.505689 21.17436-17.925755 37.3239-36.225451 27.321001l-86.473656-47.128143a24.177567 24.177567 0 0 0-23.254402 0l-86.473656 47.128143c-18.334752 10.002899-39.731139-6.146641-36.22545-27.321001l16.558536-99.818645a26.538064 26.538064 0 0 0-7.186662-22.950575l-69.93849-70.698057c-14.829063-14.992662-6.637437-41.121729 13.859156-44.218421l96.628468-14.571979a25.089046 25.089046 0 0 0 18.813863-14.186354l43.236828-90.82071a24.539821 24.539821 0 0 1 44.814388 0.011685zM786.863527 1024a87.408506 87.408506 0 0 1-41.963094-10.785836l-207.536775-113.222061a29.027103 29.027103 0 0 0-27.881911 0L301.956658 1013.214164a87.046252 87.046252 0 0 1-92.713782-5.538988c-28.781705-20.449851-43.026487-55.121113-37.171986-90.505198l10.598865-64.119047a29.215242 29.215242 0 1 1 57.645209 9.547159l-10.598865 64.119047c-2.208584 13.356674 2.78118 25.813555 13.368359 33.3391a28.489564 28.489564 0 0 0 30.896804 1.869701l207.525089-113.187005a87.198165 87.198165 0 0 1 83.832703 0l207.536775 113.187005a28.454507 28.454507 0 0 0 30.885118-1.881387c10.58718-7.525545 15.588629-19.982426 13.380045-33.3391l-10.891006-65.84852a29.214073 29.214073 0 1 1 57.645209-9.523788l10.891006 65.836835c5.842815 35.384085-8.401967 70.055347-37.183672 90.505198a87.466934 87.466934 0 0 1-50.739002 16.324824z" fill="#4070DB" p-id="4258"></path><path d="M106.853393 538.602335a29.132274 29.132274 0 0 1-20.765363-8.670737L34.589462 477.860434a92.468384 92.468384 0 0 1-21.793698-94.653596c10.832578-32.602905 38.223693-55.962478 71.469308-60.975613l232.041539-34.975088a31.037031 31.037031 0 0 0 23.149231-17.7271l103.768387-218.112269c15.074462-31.691426 45.807666-51.416768 80.198474-51.416768s65.124011 19.6786 80.198473 51.416768l103.768387 218.112269a31.072088 31.072088 0 0 0 23.160917 17.7271l232.029853 34.975088c33.257301 5.013135 60.63673 28.372708 71.469308 60.975613a92.445012 92.445012 0 0 1-21.793698 94.653596l-50.330005 50.902601a29.218747 29.218747 0 0 1-41.554098-41.086672l50.341691-50.902601a33.888325 33.888325 0 0 0 7.8878-35.138687c-1.881386-5.655845-8.063084-19.106004-24.726792-21.618414l-232.041539-34.975088a89.395063 89.395063 0 0 1-67.204053-50.365062L550.86056 76.564242c-5.375389-11.300003-15.635372-18.042611-27.437857-18.042611s-22.062468 6.742608-27.437858 18.042611l-103.768387 218.112269a89.360006 89.360006 0 0 1-67.215739 50.365062l-232.018168 34.940031c-16.675393 2.51241-22.857091 15.962569-24.738477 21.618414-4.218512 12.737336-1.273734 25.871983 7.8878 35.138687l51.498568 52.071164a29.214073 29.214073 0 0 1-20.777049 49.757409z" fill="#4070DB" p-id="4259"></path><path d="M855.528284 886.962627a157.674195 157.674195 0 0 1-34.507663-3.844572c-53.753894-12.059569-91.802303-30.324208-100.695067-34.823175-34.390807-13.309932-51.954307-52.970957-39.228657-89.605405a74.157003 74.157003 0 0 1 18.697007-29.214073q-1.542503-2.827922-2.851294-5.842815a79.462278 79.462278 0 0 1 30.067124-98.159285 77.873033 77.873033 0 0 1 45.445412-96.897237 74.647799 74.647799 0 0 1 3.61086-33.15213c11.779114-33.888325 44.650789-52.37499 83.774275-47.093086 0.537539 0.070114 1.063392 0.151913 1.600931 0.257084 1.752844 0.338883 43.634139 8.588937 98.498169 36.377364 83.785961 42.442205 113.584316 139.958781 75.95659 248.436476-18.276324 52.585331-47.572196 94.653596-84.744183 121.6474-28.956989 21.022447-62.003948 31.913453-95.623504 31.913454z m-107.612959-118.796107a10.108069 10.108069 0 0 0-4.674252 1.250363 14.805692 14.805692 0 0 0-6.929578 8.437024c-2.337126 6.859464 0.081799 14.209725 5.398761 16.056054a31.469399 31.469399 0 0 1 4.125027 1.799587c0.303826 0.163599 35.793082 18.697007 87.992788 30.382636a100.426297 100.426297 0 0 0 21.933926 2.465668c52.468475 0 100.005615-42.61749 124.931061-114.355567 27.916968-80.397129 9.874357-148.278949-47.116457-177.142453-43.236828-21.910555-77.031668-29.786669-82.442114-30.966918-16.231339-1.916443-18.837234 5.609102-19.865569 8.483767-2.51241 7.233404 0.151913 15.004348 5.842814 16.967534l75.290509 26.152438a29.214073 29.214073 0 0 1 18.01924 37.195358l-0.619338 1.76453a29.214073 29.214073 0 0 1-37.183672 18.007554l-91.288135-31.714797c-7.104863-2.465668-15.6938 2.874665-18.697007 11.685629s0.37394 18.311381 7.490488 20.777048l91.066109 31.632999a29.214073 29.214073 0 0 1 18.01924 37.195357l-0.864737 2.453983A29.214073 29.214073 0 0 1 861.172443 704.701868l-90.960938-31.551199a13.391731 13.391731 0 0 0-10.762464 1.168563 20.905591 20.905591 0 0 0-9.09142 25.848612 13.36836 13.36836 0 0 0 7.759258 7.548916l94.151114 32.719762a29.214073 29.214073 0 0 1 18.007555 37.183672l-0.537539 1.542503a29.214073 29.214073 0 0 1-37.148615 17.995869l-82.079859-28.512935a7.712515 7.712515 0 0 0-2.59421-0.479111zM196.458798 886.962627c-33.596184 0-66.608086-10.891006-95.600132-31.913454-37.171986-26.993803-66.479544-69.050383-84.744183-121.6474-37.674468-108.477696-7.876114-205.994271 75.956589-248.436476 54.864029-27.788426 96.745324-36.03848 98.498169-36.377364 0.537539-0.105171 1.063392-0.18697 1.600931-0.257084 39.123487-5.281904 71.995161 13.193075 83.774276 47.093086a74.647799 74.647799 0 0 1 3.692658 33.210558 77.873033 77.873033 0 0 1 45.363613 96.897237 79.205195 79.205195 0 0 1 27.180773 103.850187 74.121946 74.121946 0 0 1 18.697007 29.214073c12.72565 36.634448-4.83785 76.295473-39.228657 89.605405-8.892764 4.498967-46.952858 22.763606-100.695067 34.823174a157.592395 157.592395 0 0 1-34.495977 3.938058z m4.393796-380.846341c-5.211791 1.168563-39.053373 8.997934-82.430428 30.966917-57.002499 28.863504-75.045111 96.745324-47.139828 177.107396 24.925447 71.738078 72.450901 114.343882 124.931062 114.355567a100.426297 100.426297 0 0 0 21.933926-2.465668c52.199706-11.685629 87.642219-30.242408 88.03953-30.382635a32.357507 32.357507 0 0 1 4.078285-1.776216c5.316961-1.846329 7.782629-9.19659 5.39876-16.056055a14.805692 14.805692 0 0 0-6.929578-8.437024 9.114791 9.114791 0 0 0-7.256776-0.806308l-82.079859 28.536306a29.214073 29.214073 0 0 1-37.183672-18.01924l-0.537539-1.542503a29.214073 29.214073 0 0 1 18.007555-37.183672l94.151114-32.719762c7.642401-2.652638 11.346746-12.854192 8.098141-22.202695a19.97074 19.97074 0 0 0-9.348503-11.264947 13.344989 13.344989 0 0 0-10.762465-1.168563l-90.960937 31.551199a29.214073 29.214073 0 0 1-37.183673-18.007555l-0.85305-2.465667a29.214073 29.214073 0 0 1 18.01924-37.183672l91.054422-31.527828c7.116548-2.465668 10.517066-11.989456 7.478803-20.777049s-11.685629-14.139611-18.697007-11.685629l-91.288135 31.714798a29.214073 29.214073 0 0 1-37.183672-18.01924l-0.619338-1.76453a29.214073 29.214073 0 0 1 18.01924-37.183672l75.290509-26.152439c5.655845-1.963186 8.320168-9.734129 5.842814-16.967533-1.063392-2.862979-3.680973-10.388524-19.912312-8.472081z" fill="#4070DB" p-id="4260"></path></svg>