<?xml version="1.0" standalone="no"?><!DOCTYPE svg PUBLIC "-//W3C//DTD SVG 1.1//EN" "http://www.w3.org/Graphics/SVG/1.1/DTD/svg11.dtd"><svg t="1688539836262" class="icon" viewBox="0 0 1024 1024" version="1.1" xmlns="http://www.w3.org/2000/svg" p-id="71095" xmlns:xlink="http://www.w3.org/1999/xlink" width="200" height="200"><path d="M297.22624 268.45184c21.9648 0 39.90528 17.05984 41.1648 38.57408l0.07168 2.41664v81.96096c0 93.30688 74.97728 169.20576 168.30464 171.4176l4.1984 0.0512H523.264c93.87008 0 170.22976-74.52672 172.45184-167.30112l0.0512-4.16768v-81.11104c0-22.6304 18.46272-40.98048 41.23648-40.98048 21.95456 0 39.90528 17.05984 41.1648 38.57408l0.06144 2.4064v81.1008c0 130.38592-99.03104 237.7728-226.4064 251.87328v182.70208h73.46176a30.72 30.72 0 0 1 30.72 30.72V890.88a30.72 30.72 0 0 1-30.72 30.72H408.94464a30.72 30.72 0 0 1-30.72-30.72v-34.19136a30.72 30.72 0 0 1 30.72-30.72h59.55584V641.3312C349.3888 621.49632 258.2528 519.53664 256.04096 396.00128l-0.04096-4.608V309.4528c0-22.6304 18.46272-40.99072 41.22624-40.99072zM563.85536 102.4a92.16 92.16 0 0 1 92.16 92.16v225.28a92.16 92.16 0 0 1-92.16 92.16h-93.47072a92.16 92.16 0 0 1-92.16-92.16V194.56a92.16 92.16 0 0 1 92.16-92.16h93.47072z m-6.26688 129.792a6.3488 6.3488 0 0 0-8.26368 3.51232l-38.87104 96.22528c-4.28032-4.3008-10.4448-7.50592-17.69472-8.68352-15.83104-2.57024-30.89408 5.39648-33.64864 17.79712-2.7648 12.3904 7.8336 24.53504 23.6544 27.11552 14.57152 2.3552 28.48768-4.1984 32.768-14.90944l39.4752-97.7408c9.5232 2.65216 20.23424 37.62176 20.2752 34.47808 4.23936-25.99936-0.67584-44.86144-14.7456-56.60672l-0.4096 0.67584a6.31808 6.31808 0 0 0-2.53952-1.86368z" fill="#FAB005" p-id="71096"></path></svg>