<?xml version="1.0" standalone="no"?><!DOCTYPE svg PUBLIC "-//W3C//DTD SVG 1.1//EN" "http://www.w3.org/Graphics/SVG/1.1/DTD/svg11.dtd"><svg t="1689145322032" class="icon" viewBox="0 0 1024 1024" version="1.1" xmlns="http://www.w3.org/2000/svg" p-id="2755" xmlns:xlink="http://www.w3.org/1999/xlink" width="200" height="200"><path d="M213.382102 899.485511a283.935722 283.935722 0 1 0 75.459154-394.404895 283.901298 283.901298 0 0 0-75.459154 394.404895z m0 0" fill="#6993CD" p-id="2756"></path><path d="M563.654407 49.468433c-45.991528 5.817791-79.177032 5.852215-99.108989 0S420.825926 26.885766 393.94016 0L347.191286 24.097358s76.664022 135.495999 129.333961 152.260875q73.63464 11.77328 183.690715-0.550797 108.747932-10.843811 132.087944 40.104888c10.052041 21.928595 9.879917 54.012506-0.619646 96.010758l34.424797 23.236738q53.805957-139.351577 21.549922-209.99126Q798.121697 17.212398 563.654407 49.468433z" fill="#5B80B2" p-id="2757"></path><path d="M285.064856 54.618382L394.036549 0.06885l316.308802 631.929106-108.975137 54.549533z" fill="#6993CD" p-id="2758"></path><path d="M440.792308 752.078532l-54.11578 124.686613 56.559941 54.597727 59.107376-51.568345-47.265246-127.337323 80.932697 109.126606 75.528003-21.584348-15.009211-77.07712-133.77476-22.68594 134.63538-15.456734 19.105762-76.078801-74.288711-25.646473-86.406239 104.548107 53.978081-124.411215-56.559941-54.597727-59.107376 51.568345 47.299671 126.993075-80.898272-108.920057-75.390305 21.653197 14.905937 77.00827 133.981308 22.617092-134.945202 15.663282-19.105763 76.078801 74.288712 25.646473 86.543938-104.823505z" fill="#FFFFFF" p-id="2759"></path></svg>